<svg width="14" height="8" viewBox="0 0 14 8" fill="none" xmlns="http://www.w3.org/2000/svg">
<path d="M13.2687 0.32052C13.0571 0.114979 12.7738 0 12.4788 0C12.1839 0 11.9005 0.114979 11.689 0.32052L6.79822 5.2113L1.90744 0.32052C1.69589 0.114979 1.41255 0 1.11759 0C0.822637 0 0.539297 0.114979 0.32775 0.32052C0.223858 0.424149 0.141431 0.547257 0.08519 0.682791C0.0289495 0.818326 0 0.963624 0 1.11036C0 1.2571 0.0289495 1.4024 0.08519 1.53794C0.141431 1.67347 0.223858 1.79658 0.32775 1.90021L6.01284 7.58529C6.22288 7.79026 6.50474 7.905 6.79822 7.905C7.0917 7.905 7.37356 7.79026 7.5836 7.58529L13.2687 1.90021C13.3726 1.79658 13.455 1.67347 13.5112 1.53794C13.5675 1.4024 13.5964 1.2571 13.5964 1.11036C13.5964 0.963624 13.5675 0.818326 13.5112 0.682791C13.455 0.547257 13.3726 0.424149 13.2687 0.32052Z" fill="#101357"/>
</svg>
