<svg width="32" height="32" viewBox="0 0 32 32" fill="none" xmlns="http://www.w3.org/2000/svg">
<path fill-rule="evenodd" clip-rule="evenodd" d="M8.64342 23.4852C10.6739 25.5157 13.4271 26.6575 16.2986 26.66C18.0805 26.6621 19.8354 26.2245 21.4077 25.3859C22.98 24.5474 24.321 23.3338 25.312 21.8529C26.3029 20.3719 26.9132 18.6693 27.0886 16.8961C27.264 15.1228 26.9991 13.3337 26.3175 11.6873C25.6359 10.0409 24.5585 8.58814 23.181 7.45781C21.8035 6.32749 20.1683 5.55452 18.4205 5.20746C16.6728 4.86039 14.8663 4.94995 13.1615 5.46818C11.4566 5.98642 9.9059 6.91732 8.64693 8.17836C8.57257 8.24277 8.51227 8.32182 8.46981 8.41056C8.42734 8.4993 8.4036 8.59584 8.40008 8.69416C8.39657 8.79247 8.41334 8.89046 8.44936 8.98201C8.48537 9.07356 8.53986 9.15671 8.60943 9.22628C8.67899 9.29584 8.76214 9.35033 8.85369 9.38635C8.94524 9.42237 9.04323 9.43914 9.14155 9.43562C9.23987 9.4321 9.33641 9.40837 9.42515 9.3659C9.51389 9.32343 9.59293 9.26314 9.65735 9.18878C11.1994 7.65089 13.2271 6.6954 15.3948 6.48516C17.5625 6.27493 19.736 6.82296 21.5448 8.03585C23.3537 9.24874 24.6859 11.0514 25.3145 13.1366C25.943 15.2218 25.8289 17.4604 24.9917 19.4709C24.1545 21.4814 22.6459 23.1393 20.7231 24.1621C18.8004 25.1848 16.5824 25.5091 14.4473 25.0796C12.3122 24.6501 10.3922 23.4935 9.01441 21.8068C7.63665 20.1202 6.88647 18.0079 6.89174 15.83H7.87844C7.97528 15.8356 8.07151 15.8114 8.15416 15.7606C8.23681 15.7099 8.3019 15.635 8.34068 15.5461C8.37945 15.4572 8.39003 15.3585 8.37099 15.2634C8.35196 15.1683 8.30422 15.0813 8.23422 15.0141L6.53121 13.3158C6.44233 13.2275 6.3221 13.1779 6.19678 13.1779C6.07145 13.1779 5.95122 13.2275 5.86234 13.3158L4.14036 15.0189C4.07346 15.0852 4.02783 15.17 4.0093 15.2624C3.99076 15.3547 4.00016 15.4506 4.03629 15.5376C4.07243 15.6246 4.13365 15.6989 4.21217 15.751C4.29069 15.8031 4.38294 15.8306 4.47717 15.83H5.46861C5.47112 18.7016 6.61294 21.4548 8.64342 23.4852ZM15.7954 9.00344C15.9289 8.87 16.1099 8.79503 16.2986 8.79503C16.4873 8.79503 16.6683 8.87 16.8017 9.00344C16.9352 9.13688 17.0101 9.31787 17.0101 9.50659V15.7826H20.8716C21.0603 15.7826 21.2413 15.8576 21.3747 15.991C21.5081 16.1244 21.5831 16.3054 21.5831 16.4941C21.5831 16.6829 21.5081 16.8639 21.3747 16.9973C21.2413 17.1307 21.0603 17.2057 20.8716 17.2057H16.2986C16.1099 17.2057 15.9289 17.1307 15.7954 16.9973C15.662 16.8639 15.587 16.6829 15.587 16.4941V9.50659C15.587 9.31787 15.662 9.13688 15.7954 9.00344Z" fill="black"/>
</svg>
