<svg width="32" height="32" viewBox="0 0 32 32" fill="none" xmlns="http://www.w3.org/2000/svg">
<path fill-rule="evenodd" clip-rule="evenodd" d="M26.2319 7.16104H24.2385V6.54771C24.2385 6.13723 24.0755 5.74356 23.7852 5.45331C23.495 5.16306 23.1013 5 22.6908 5C22.2804 5 21.8867 5.16306 21.5964 5.45331C21.3062 5.74356 21.1431 6.13723 21.1431 6.54771V7.16104H11.8569V6.54771C11.8569 6.13723 11.6938 5.74356 11.4036 5.45331C11.1133 5.16306 10.7196 5 10.3092 5C9.89869 5 9.50502 5.16306 9.21477 5.45331C8.92452 5.74356 8.76146 6.13723 8.76146 6.54771V7.16104H6.76812C6.29919 7.16104 5.84946 7.34733 5.51787 7.67891C5.18628 8.0105 5 8.46023 5 8.92917V25.3454C5 25.8148 5.18613 26.265 5.51758 26.5974C5.84903 26.9297 6.29875 27.1171 6.76812 27.1183H26.2319C26.7013 27.1171 27.151 26.9297 27.4824 26.5974C27.8139 26.265 28 25.8148 28 25.3454V8.92917C28 8.46023 27.8137 8.0105 27.4821 7.67891C27.1505 7.34733 26.7008 7.16104 26.2319 7.16104ZM22.0296 6.54771C22.0437 6.38143 22.1198 6.22653 22.2427 6.11364C22.3656 6.00075 22.5264 5.93811 22.6932 5.93811C22.8601 5.93811 23.0209 6.00075 23.1438 6.11364C23.2667 6.22653 23.3427 6.38143 23.3569 6.54771V8.76146C23.3427 8.92773 23.2667 9.08264 23.1438 9.19553C23.0209 9.30842 22.8601 9.37106 22.6932 9.37106C22.5264 9.37106 22.3656 9.30842 22.2427 9.19553C22.1198 9.08264 22.0437 8.92773 22.0296 8.76146V6.54771ZM9.64313 6.54771C9.65727 6.38143 9.73331 6.22653 9.8562 6.11364C9.9791 6.00075 10.1399 5.93811 10.3068 5.93811C10.4736 5.93811 10.6344 6.00075 10.7573 6.11364C10.8802 6.22653 10.9563 6.38143 10.9704 6.54771V8.76146C10.9563 8.92773 10.8802 9.08264 10.7573 9.19553C10.6344 9.30842 10.4736 9.37106 10.3068 9.37106C10.1399 9.37106 9.9791 9.30842 9.8562 9.19553C9.73331 9.08264 9.65727 8.92773 9.64313 8.76146V6.54771ZM6.76812 8.46437H8.76146V8.7375C8.76146 9.14798 8.92452 9.54164 9.21477 9.83189C9.50502 10.1221 9.89869 10.2852 10.3092 10.2852C10.7196 10.2852 11.1133 10.1221 11.4036 9.83189C11.6938 9.54164 11.8569 9.14798 11.8569 8.7375V8.48833H21.1431V8.76146C21.1431 9.17194 21.3062 9.5656 21.5964 9.85585C21.8867 10.1461 22.2804 10.3092 22.6908 10.3092C23.1013 10.3092 23.495 10.1461 23.7852 9.85585C24.0755 9.5656 24.2385 9.17194 24.2385 8.76146V8.48833H26.2319C26.3488 8.48833 26.4609 8.53478 26.5436 8.61745C26.6263 8.70012 26.6727 8.81225 26.6727 8.92917V12.5229H6.32729V8.92917C6.32729 8.81225 6.37374 8.70012 6.45641 8.61745C6.53908 8.53478 6.65121 8.48833 6.76812 8.48833V8.46437ZM26.2319 25.791H6.76812C6.65077 25.7898 6.53865 25.7423 6.45611 25.6588C6.37358 25.5754 6.32729 25.4628 6.32729 25.3454V13.4046H26.6727V25.3454C26.6727 25.4628 26.6264 25.5754 26.5439 25.6588C26.4613 25.7423 26.3492 25.7898 26.2319 25.791ZM10.3088 17.8801C10.674 17.8801 10.97 17.584 10.97 17.2188C10.97 16.8536 10.674 16.5576 10.3088 16.5576C9.9436 16.5576 9.64755 16.8536 9.64755 17.2188C9.64755 17.584 9.9436 17.8801 10.3088 17.8801ZM23.3516 17.2188C23.3516 17.584 23.0556 17.8801 22.6904 17.8801C22.3252 17.8801 22.0291 17.584 22.0291 17.2188C22.0291 16.8536 22.3252 16.5576 22.6904 16.5576C23.0556 16.5576 23.3516 16.8536 23.3516 17.2188ZM16.4996 17.8801C16.8648 17.8801 17.1608 17.584 17.1608 17.2188C17.1608 16.8536 16.8648 16.5576 16.4996 16.5576C16.1344 16.5576 15.8383 16.8536 15.8383 17.2188C15.8383 17.584 16.1344 17.8801 16.4996 17.8801ZM10.9704 22.0823C10.9704 22.4475 10.6744 22.7436 10.3092 22.7436C9.94397 22.7436 9.64791 22.4475 9.64791 22.0823C9.64791 21.7171 9.94397 21.4211 10.3092 21.4211C10.6744 21.4211 10.9704 21.7171 10.9704 22.0823ZM22.6908 22.7436C23.056 22.7436 23.3521 22.4475 23.3521 22.0823C23.3521 21.7171 23.056 21.4211 22.6908 21.4211C22.3256 21.4211 22.0296 21.7171 22.0296 22.0823C22.0296 22.4475 22.3256 22.7436 22.6908 22.7436ZM17.1612 22.0823C17.1612 22.4475 16.8652 22.7436 16.5 22.7436C16.1348 22.7436 15.8387 22.4475 15.8387 22.0823C15.8387 21.7171 16.1348 21.4211 16.5 21.4211C16.8652 21.4211 17.1612 21.7171 17.1612 22.0823Z" fill="#121212"/>
</svg>
