<svg width="32" height="32" viewBox="0 0 32 32" fill="none" xmlns="http://www.w3.org/2000/svg">
<path fill-rule="evenodd" clip-rule="evenodd" d="M10.9684 6.79043C12.4439 5.8115 14.1385 5.21244 15.9014 5.04655C17.5538 4.89223 19.2194 5.12279 20.7677 5.72015C22.3161 6.31751 23.7049 7.26543 24.8255 8.48957C25.946 9.71371 26.7677 11.1808 27.2261 12.7757C27.6846 14.3707 27.7673 16.0502 27.4679 17.6825C27.1684 19.3148 26.4948 20.8555 25.5001 22.1839C24.5053 23.5122 23.2163 24.5921 21.7342 25.3387C20.2521 26.0853 18.6172 26.4785 16.9577 26.4873C15.2981 26.4961 13.6591 26.1204 12.1692 25.3896C11.9822 25.3014 11.778 25.2556 11.5713 25.2556C11.3645 25.2556 11.1603 25.3014 10.9733 25.3896L7.58673 26.9684C7.44841 27.0233 7.30108 27.0518 7.15231 27.0525C6.9648 27.0521 6.78013 27.0068 6.61378 26.9203C6.44743 26.8337 6.30425 26.7086 6.19627 26.5553C6.08828 26.402 6.01863 26.2251 5.99316 26.0393C5.9677 25.8535 5.98716 25.6644 6.04991 25.4877L7.4933 21.9796C7.57145 21.7921 7.60656 21.5894 7.59605 21.3865C7.58554 21.1836 7.52968 20.9856 7.43258 20.8071C6.59794 19.2455 6.16223 17.5017 6.16422 15.731C6.16621 13.9602 6.60584 12.2174 7.44399 10.6576C8.28215 9.09783 9.49284 7.76937 10.9684 6.79043ZM24.9627 20.4321C25.7137 19.1425 26.1449 17.6918 26.2201 16.2014H26.2061C26.281 14.7906 26.035 13.3812 25.4866 12.0792C24.9382 10.7772 24.1016 9.61655 23.0399 8.68457C21.9781 7.75259 20.7188 7.07355 19.3567 6.69854C17.9946 6.32354 16.5652 6.26233 15.1761 6.51953C13.7869 6.77672 12.4742 7.34563 11.3366 8.18344C10.1991 9.02124 9.26636 10.1061 8.60864 11.3565C7.95093 12.6068 7.58536 13.99 7.53942 15.402C7.49349 16.8141 7.7684 18.2181 8.34346 19.5086C8.5019 19.8731 8.6861 20.2259 8.89466 20.5642C9.01103 20.75 9.08222 20.9604 9.1025 21.1786C9.12278 21.3969 9.09159 21.6168 9.01144 21.8208L7.53535 25.4597L11.0574 23.8294C11.2592 23.7371 11.4801 23.6941 11.7018 23.7038C11.9235 23.7136 12.1397 23.7758 12.3327 23.8855C12.6644 24.072 13.0077 24.2373 13.3603 24.3806C14.7421 24.9444 16.2388 25.1689 17.7251 25.0354C19.2115 24.902 20.6442 24.4144 21.9034 23.6135C23.1627 22.8126 24.2117 21.7217 24.9627 20.4321ZM12.7484 15.7669C12.7484 16.2829 12.3301 16.7012 11.8142 16.7012C11.2982 16.7012 10.8799 16.2829 10.8799 15.7669C10.8799 15.251 11.2982 14.8327 11.8142 14.8327C12.3301 14.8327 12.7484 15.251 12.7484 15.7669ZM16.9011 16.7012C17.417 16.7012 17.8353 16.2829 17.8353 15.7669C17.8353 15.251 17.417 14.8327 16.9011 14.8327C16.3851 14.8327 15.9668 15.251 15.9668 15.7669C15.9668 16.2829 16.3851 16.7012 16.9011 16.7012ZM22.9176 15.7669C22.9176 16.2829 22.4993 16.7012 21.9833 16.7012C21.4674 16.7012 21.0491 16.2829 21.0491 15.7669C21.0491 15.251 21.4674 14.8327 21.9833 14.8327C22.4993 14.8327 22.9176 15.251 22.9176 15.7669Z" fill="black"/>
</svg>
