<svg width="32" height="32" viewBox="0 0 32 32" fill="none" xmlns="http://www.w3.org/2000/svg">
<path d="M20.0307 4.43274C19.7561 4.15487 19.3847 3.99938 18.9979 4.00036H8.28001C7.68729 3.9897 7.11457 4.21906 6.68725 4.63822C6.25993 5.05738 6.01282 5.63219 6.00002 6.23681V26.6134C5.99887 26.8065 6.04239 26.9971 6.12704 27.1698C6.21169 27.3426 6.33508 27.4925 6.4872 27.6074C6.64488 27.7274 6.82779 27.8083 7.02143 27.8437C7.21508 27.879 7.41414 27.8679 7.60284 27.8111L11.1105 25.7685L15.0079 27.8857L15.1444 27.9453C15.2614 27.9809 15.3828 27.9993 15.5049 28C15.6285 27.9989 15.7515 27.9805 15.8702 27.9453L19.8797 25.7685L23.2364 27.7217L23.3923 27.7913C23.5818 27.848 23.7816 27.8592 23.976 27.8238C24.1705 27.7885 24.3542 27.7076 24.5128 27.5875C24.6652 27.4729 24.7888 27.323 24.8735 27.1502C24.9582 26.9775 25.0015 26.7867 25 26.5935V10.1183C24.9996 9.723 24.8454 9.34403 24.5712 9.06468L20.0307 4.43274ZM23.0415 9.50203H20.3328C20.139 9.50203 19.9531 9.42349 19.8161 9.28369C19.679 9.14388 19.602 8.95426 19.602 8.75655V5.98831L23.0415 9.50203ZM23.5287 26.181L20.3913 24.3571L20.2402 24.2875C20.0031 24.218 19.7515 24.218 19.5143 24.2875L15.4951 26.4693L11.5977 24.3471L11.4613 24.2875C11.3423 24.2539 11.2194 24.2372 11.0959 24.2378C10.974 24.2368 10.8526 24.2536 10.7354 24.2875L7.45668 26.181V6.23681C7.46925 6.02759 7.56229 5.83189 7.71556 5.69228C7.86883 5.55267 8.06994 5.48045 8.27514 5.49132H18.1405V8.75655C18.1418 9.34929 18.3732 9.91738 18.784 10.3365C19.1949 10.7556 19.7518 10.9917 20.3328 10.993H23.5336L23.5287 26.181Z" fill="#121212"/>
</svg>
