<svg width="32" height="32" viewBox="0 0 32 32" fill="none" xmlns="http://www.w3.org/2000/svg">
<path fill-rule="evenodd" clip-rule="evenodd" d="M24.9664 18.548V9.14946C24.9664 8.73402 24.8013 8.33559 24.5076 8.04183C24.2138 7.74807 23.8154 7.58304 23.4 7.58304H4.08077C3.66533 7.58304 3.26691 7.74807 2.97314 8.04183C2.67938 8.33559 2.51435 8.73402 2.51435 9.14946V18.548C2.51435 18.9634 2.67938 19.3618 2.97314 19.6556C3.26691 19.9494 3.66533 20.1144 4.08077 20.1144H23.4C23.8154 20.1144 24.2138 19.9494 24.5076 19.6556C24.8013 19.3618 24.9664 18.9634 24.9664 18.548ZM4.08077 9.14946H23.4V18.548H4.08077V9.14946ZM28.7669 11.8856H26.5322V13.452H28.7669V22.8505H9.41639V21.6809H7.84997V22.8505C7.84997 23.266 8.01501 23.6644 8.30877 23.9582C8.60253 24.2519 9.00095 24.417 9.41639 24.417H28.7669C29.1824 24.417 29.5808 24.2519 29.8745 23.9582C30.1683 23.6644 30.3333 23.266 30.3333 22.8505V13.452C30.3333 13.2463 30.2928 13.0426 30.2141 12.8526C30.1354 12.6625 30.02 12.4898 29.8745 12.3444C29.7291 12.1989 29.5564 12.0836 29.3664 12.0048C29.1763 11.9261 28.9726 11.8856 28.7669 11.8856ZM13.2665 10.7063C13.4523 10.636 13.6512 10.6071 13.8494 10.6217C14.0483 10.607 14.248 10.6358 14.4347 10.7062C14.6213 10.7765 14.7904 10.8867 14.9302 11.029C15.1902 11.3612 15.3185 11.7776 15.2905 12.1986V12.491H14.3611V12.1359C14.3752 11.9686 14.3329 11.8013 14.241 11.6608C14.1942 11.6118 14.1372 11.5737 14.074 11.5494C14.0108 11.525 13.943 11.5149 13.8755 11.5198C13.8087 11.5146 13.7415 11.5245 13.6792 11.549C13.6168 11.5734 13.5607 11.6116 13.5152 11.6608C13.4209 11.8003 13.3784 11.9684 13.3951 12.1359V12.9661H14.7735V13.4883H13.3951V13.9791H14.7735V14.4699H13.3951V15.5455C13.3792 15.7113 13.4216 15.8775 13.5152 16.0154C13.5607 16.0646 13.6168 16.1028 13.6792 16.1272C13.7415 16.1516 13.8087 16.1616 13.8755 16.1564C13.943 16.1613 14.0108 16.1512 14.074 16.1268C14.1372 16.1024 14.1942 16.0644 14.241 16.0154C14.3322 15.8765 14.3744 15.7111 14.3611 15.5455V14.9555H15.2905V15.4776C15.3174 15.8952 15.1891 16.308 14.9302 16.6368C14.7904 16.7791 14.6213 16.8892 14.4347 16.9596C14.248 17.0299 14.0483 17.0587 13.8494 17.044C13.6562 17.0675 13.4603 17.0494 13.2748 16.9908C13.0893 16.9323 12.9184 16.8347 12.7737 16.7046C12.5099 16.3762 12.3794 15.9605 12.4082 15.5403V14.496H12.1576V14.0052H12.4082V13.5144H12.1576V12.9922H12.4082V12.1986C12.3791 11.7767 12.5096 11.3592 12.7737 11.029C12.9125 10.8868 13.0807 10.7767 13.2665 10.7063Z" fill="#121212"/>
</svg>
