<svg width="32" height="32" viewBox="0 0 32 32" fill="none" xmlns="http://www.w3.org/2000/svg">
<path fill-rule="evenodd" clip-rule="evenodd" d="M26.364 13.8326C26.3774 13.8435 26.3907 13.8543 26.4039 13.8651L26.4362 13.891C27.1119 14.4331 27.86 15.0334 27.86 15.9492C27.86 16.8769 27.0923 17.4808 26.3961 18.0285L26.39 18.0333L26.376 18.0445C26.0204 18.3308 25.5889 18.6783 25.5154 18.9079C25.4912 19.3428 25.5561 19.7782 25.7061 20.1872C25.9294 21.0152 26.162 21.941 25.6596 22.6667C25.1625 23.3848 24.178 23.4379 23.3237 23.484L23.2964 23.4855C22.8666 23.4682 22.4379 23.5378 22.0357 23.6901C21.7705 24.0234 21.5744 24.4061 21.4588 24.8159C21.1518 25.6254 20.8029 26.5418 19.9423 26.8209C19.7922 26.8705 19.6351 26.8957 19.4771 26.8954C18.7957 26.8085 18.1517 26.5348 17.6163 26.1045C17.2656 25.8292 16.8617 25.6296 16.43 25.5184C15.9885 25.626 15.5747 25.8258 15.2158 26.1045L15.1874 26.1236C14.5016 26.5841 13.7387 27.0963 12.8898 26.8209C12.0292 26.5418 11.6803 25.6254 11.3733 24.8159C11.2577 24.4061 11.0616 24.0234 10.7964 23.6901C10.3927 23.5374 9.96232 23.4678 9.53106 23.4855C8.67509 23.4389 7.68421 23.3785 7.17249 22.6667C6.66077 21.9549 6.90267 21.0152 7.12597 20.1872C7.27911 19.7788 7.34719 19.3435 7.32601 18.9079C7.25254 18.6783 6.82099 18.3308 6.46535 18.0445L6.45143 18.0333C6.43788 18.0223 6.4243 18.0114 6.41069 18.0004C5.74174 17.4601 5 16.861 5 15.9492C5 15.0188 5.77223 14.414 6.45608 13.8883C6.46926 13.8776 6.48256 13.8668 6.49596 13.8558C6.84207 13.5737 7.25435 13.2377 7.32601 13.0138C7.35016 12.5788 7.28525 12.1435 7.13528 11.7345L7.13186 11.7218C6.90939 10.8969 6.6588 9.96767 7.1818 9.25029C7.70279 8.53565 8.66703 8.48359 9.522 8.43743L9.54502 8.43618C9.97477 8.45386 10.4036 8.38423 10.8057 8.2315C11.07 7.89946 11.2661 7.51844 11.3826 7.11036C11.6896 6.273 12.1083 5.34725 12.9177 5.07743C13.7272 4.80761 14.532 5.32864 15.2437 5.79384C15.5944 6.06914 15.9983 6.26873 16.43 6.37999C16.8682 6.27115 17.2787 6.07145 17.6349 5.79384L17.6633 5.77474C18.3491 5.3143 19.112 4.80212 19.9609 5.07743C20.8215 5.35655 21.1704 6.273 21.4774 7.08245C21.593 7.4923 21.7891 7.87502 22.0543 8.20824C22.4565 8.3606 22.8853 8.43022 23.315 8.41292C24.1756 8.45944 25.1758 8.51992 25.6875 9.23168C26.1992 9.94344 25.9573 10.8831 25.734 11.7112C25.5809 12.1196 25.5128 12.5549 25.534 12.9905C25.6057 13.2144 26.0179 13.5505 26.364 13.8326ZM24.2035 18.4752C24.4936 17.8497 24.9549 17.319 25.534 16.9447C25.9015 16.647 26.4597 16.1864 26.4597 15.9399C26.4597 15.6933 25.9015 15.2421 25.5293 14.9444C24.9528 14.5684 24.4934 14.0381 24.2035 13.4138C24.0654 12.7198 24.1251 12.0009 24.3756 11.339C24.3784 11.3288 24.3811 11.3185 24.3839 11.3079C24.4964 10.8866 24.6748 10.2181 24.5478 10.0411C24.4175 9.8597 23.7104 9.82249 23.2452 9.79923C22.5447 9.83894 21.8474 9.67753 21.2355 9.33402C20.697 8.94735 20.4362 8.2646 20.1829 7.60128L20.1749 7.58021C20.1703 7.56885 20.1656 7.55732 20.1609 7.54564C19.9841 7.10803 19.7232 6.46216 19.5329 6.40325C19.339 6.34323 18.7464 6.72309 18.3828 6.9562L18.3745 6.9615C17.8172 7.41257 17.1425 7.69502 16.43 7.7756C15.7252 7.6894 15.0591 7.40555 14.5087 6.95684C14.4763 6.93579 14.4421 6.91337 14.4065 6.89005C14.049 6.65571 13.5535 6.33091 13.3504 6.3986C13.131 6.47173 12.8846 7.11517 12.7173 7.5524L12.7084 7.57556C12.5329 8.25886 12.1648 8.87733 11.6477 9.35728C11.0337 9.69947 10.3353 9.86076 9.63341 9.82248C9.1682 9.84575 8.4611 9.88761 8.33084 10.0644C8.20297 10.2379 8.38444 10.9181 8.49676 11.339L8.50297 11.3623C8.75381 12.0241 8.81345 12.743 8.67509 13.4371C8.38519 14.0614 7.92581 14.5917 7.34927 14.9676L7.32872 14.9843C6.96117 15.2819 6.41886 15.7211 6.41886 15.9631C6.41886 16.2051 6.96116 16.6444 7.32872 16.942L7.34927 16.9587C7.92836 17.333 8.38964 17.8636 8.67974 18.4892C8.8181 19.1832 8.75846 19.9022 8.50762 20.564L8.49932 20.5951C8.38686 21.0164 8.20841 21.6849 8.33549 21.8619C8.46575 22.0433 9.17286 22.0805 9.63806 22.1038C10.3386 22.0641 11.0359 22.2255 11.6477 22.569C12.1863 22.9557 12.447 23.6384 12.7003 24.3017L12.7084 24.3228C12.8526 24.7555 13.1271 25.4346 13.3271 25.4951C13.5271 25.5556 14.1273 25.1695 14.4855 24.9369C15.0433 24.4865 15.7177 24.2041 16.43 24.1228C17.1415 24.2007 17.8161 24.4799 18.3745 24.9276C18.4152 24.9537 18.4586 24.9818 18.5037 25.0112C18.8613 25.2439 19.3346 25.5519 19.5329 25.4858C19.7523 25.4127 19.9986 24.7692 20.166 24.332L20.1749 24.3089L20.1829 24.2878C20.4362 23.6245 20.697 22.9417 21.2355 22.555C21.8474 22.2115 22.5447 22.0501 23.2452 22.0898C23.7104 22.0666 24.4175 22.0247 24.5478 21.8479C24.6756 21.6744 24.4942 20.9943 24.3819 20.5733L24.3756 20.55C24.1248 19.8883 24.0652 19.1693 24.2035 18.4752ZM15.565 17.7539L19.7239 13.595C19.8562 13.4717 20.0311 13.4046 20.2119 13.4078C20.3927 13.411 20.5652 13.4842 20.693 13.6121C20.8209 13.7399 20.8941 13.9124 20.8973 14.0932C20.9005 14.274 20.8334 14.4489 20.7101 14.5812L16.0581 19.2332C15.9935 19.2982 15.9167 19.3498 15.8321 19.3849C15.7474 19.4201 15.6566 19.4381 15.565 19.4379C15.3803 19.4362 15.2035 19.3628 15.0719 19.2332L12.1504 16.3071C12.0852 16.2426 12.0333 16.1658 11.998 16.0812C11.9626 15.9965 11.9444 15.9057 11.9444 15.814C11.9444 15.7222 11.9626 15.6314 11.998 15.5468C12.0333 15.4621 12.0852 15.3853 12.1504 15.3209C12.2819 15.1913 12.459 15.1187 12.6435 15.1187C12.8281 15.1187 13.0052 15.1913 13.1367 15.3209L15.565 17.7539Z" fill="#121212"/>
</svg>
