<svg width="32" height="32" viewBox="0 0 32 32" fill="none" xmlns="http://www.w3.org/2000/svg">
<path d="M23.0654 7.27011H19.7738C19.7738 7.03061 19.6786 6.80091 19.5093 6.63156C19.3399 6.4622 19.1102 6.36706 18.8707 6.36706H17.4619C17.3641 5.97652 17.1385 5.62989 16.8211 5.38221C16.5037 5.13454 16.1126 5.00002 15.71 5.00002C15.3074 5.00002 14.9163 5.13454 14.5989 5.38221C14.2815 5.62989 14.0559 5.97652 13.9581 6.36706H12.5493C12.3098 6.36706 12.0801 6.4622 11.9107 6.63156C11.7414 6.80091 11.6462 7.03061 11.6462 7.27011H8.35459C7.99534 7.27011 7.65079 7.41283 7.39676 7.66686C7.14272 7.9209 7.00001 8.26544 7.00001 8.6247V26.3833C7.00001 26.7426 7.14272 27.0871 7.39676 27.3412C7.65079 27.5952 7.99534 27.7379 8.35459 27.7379H23.0654C23.4247 27.7379 23.7692 27.5952 24.0233 27.3412C24.2773 27.0871 24.42 26.7426 24.42 26.3833V8.6247C24.42 8.26544 24.2773 7.9209 24.0233 7.66686C23.7692 7.41283 23.4247 7.27011 23.0654 7.27011ZM15.71 5.88843C15.8741 5.88805 16.0353 5.93241 16.1761 6.01674C16.3169 6.10107 16.4321 6.22218 16.5092 6.36706H14.9153C14.9921 6.22286 15.1066 6.10219 15.2465 6.0179C15.3864 5.93361 15.5466 5.88887 15.71 5.88843ZM18.8707 7.27011V8.6247H12.5493V7.27011H18.8707ZM23.0654 26.3833H8.35459V8.6247H11.6462C11.6462 8.86421 11.7414 9.0939 11.9107 9.26326C12.0801 9.43262 12.3098 9.52776 12.5493 9.52776H18.8707C19.1102 9.52776 19.3399 9.43262 19.5093 9.26326C19.6786 9.0939 19.7738 8.86421 19.7738 8.6247H23.0654V26.3833Z" fill="black"/>
<line x1="11.5" y1="14.5" x2="20.5" y2="14.5" stroke="black" stroke-linecap="round"/>
<line x1="11.5" y1="16.5" x2="20.5" y2="16.5" stroke="black" stroke-linecap="round"/>
<line x1="11.5" y1="18.5" x2="20.5" y2="18.5" stroke="black" stroke-linecap="round"/>
<line x1="11.5" y1="20.5" x2="20.5" y2="20.5" stroke="black" stroke-linecap="round"/>
<line x1="11.5" y1="22.5" x2="20.5" y2="22.5" stroke="black" stroke-linecap="round"/>
</svg>
