<svg width="32" height="32" viewBox="0 0 32 32" fill="none" xmlns="http://www.w3.org/2000/svg">
<path fill-rule="evenodd" clip-rule="evenodd" d="M20.6051 23.698H5.34594C4.1936 23.698 3.255 22.7595 3.255 21.6071V10.7529C3.255 9.60053 4.1936 8.66193 5.34594 8.66193H20.6051C21.1627 8.66193 21.7109 8.88961 22.1013 9.28921L27.4076 14.7163C28.1975 15.5248 28.1975 16.8351 27.4076 17.639L22.1013 23.0661C21.7109 23.4657 21.1673 23.6934 20.6051 23.6934V23.698ZM5.34594 10.0559C4.96027 10.0559 4.64896 10.3672 4.64896 10.7529V21.6118C4.64896 21.9974 4.96027 22.3087 5.34594 22.3087H20.6051C20.7956 22.3087 20.9722 22.2344 21.1023 22.0996L26.4086 16.6725C26.6688 16.403 26.6688 15.9662 26.4086 15.6968L21.1023 10.2696C20.9722 10.1349 20.7909 10.0605 20.6051 10.0605H5.34594V10.0559ZM23.2536 17.6622C22.4358 17.6622 21.7714 16.9978 21.7714 16.18C21.7714 15.3622 22.4358 14.6978 23.2536 14.6978C24.0714 14.6978 24.7358 15.3622 24.7358 16.18C24.7358 16.9978 24.0714 17.6622 23.2536 17.6622ZM23.2536 15.6271C22.9469 15.6271 22.7007 15.8733 22.7007 16.18C22.7007 16.4867 22.9469 16.7329 23.2536 16.7329C23.5603 16.7329 23.8065 16.4867 23.8065 16.18C23.8065 15.8733 23.5603 15.6271 23.2536 15.6271ZM10.0947 12.9089L9.27687 18.4521L8.45909 12.9089H7.3811L8.43121 19.7021H10.025L11.0751 12.9089H10.0947ZM14.7783 19.7021H13.705L13.5191 18.4707H12.2088L12.023 19.7021H11.0425L12.1298 12.9089H13.6911L14.7783 19.7021ZM12.3482 17.5461H13.3751L12.8593 14.1077L12.3436 17.5461H12.3482ZM18.2679 12.9089H14.9689V13.88H16.084V19.7021H17.1527V13.88H18.2679V12.9089Z" fill="black"/>
</svg>
