<svg width="32" height="32" viewBox="0 0 32 32" fill="none" xmlns="http://www.w3.org/2000/svg">
<path fill-rule="evenodd" clip-rule="evenodd" d="M19.7738 7.2701H23.0654C23.4247 7.2701 23.7692 7.41281 24.0232 7.66685C24.2773 7.92088 24.42 8.26543 24.42 8.62469V26.3833C24.42 26.7426 24.2773 27.0871 24.0232 27.3412C23.7692 27.5952 23.4247 27.7379 23.0654 27.7379H8.35459C7.99533 27.7379 7.65078 27.5952 7.39675 27.3412C7.14271 27.0871 7 26.7426 7 26.3833V8.62469C7 8.26543 7.14271 7.92088 7.39675 7.66685C7.65078 7.41281 7.99533 7.2701 8.35459 7.2701H11.6462C11.6462 7.03059 11.7414 6.8009 11.9107 6.63154C12.0801 6.46218 12.3098 6.36704 12.5493 6.36704H13.9581C14.0559 5.97651 14.2815 5.62988 14.5989 5.3822C14.9163 5.13452 15.3074 5 15.71 5C16.1126 5 16.5037 5.13452 16.8211 5.3822C17.1385 5.62988 17.3641 5.97651 17.4619 6.36704H18.8707C19.1102 6.36704 19.3399 6.46218 19.5093 6.63154C19.6786 6.8009 19.7738 7.03059 19.7738 7.2701ZM16.1761 6.01672C16.0353 5.93239 15.8741 5.88804 15.71 5.88842C15.5466 5.88886 15.3864 5.9336 15.2465 6.01789C15.1065 6.10217 14.9921 6.22284 14.9153 6.36704H16.5092C16.4321 6.22216 16.3169 6.10105 16.1761 6.01672ZM18.8707 8.62469V7.2701H12.5493V8.62469H18.8707ZM8.35459 8.62469V26.3833H23.0654V8.62469H19.7738C19.7738 8.86419 19.6786 9.09389 19.5093 9.26324C19.3399 9.4326 19.1102 9.52774 18.8707 9.52774H12.5493C12.3098 9.52774 12.0801 9.4326 11.9107 9.26324C11.7414 9.09389 11.6462 8.86419 11.6462 8.62469H8.35459ZM12.8295 14.8919C12.6614 15.0516 12.5611 15.2699 12.5495 15.5015L12.1522 15.0996C12.0475 14.9916 11.9235 14.9043 11.7865 14.8423C11.925 14.5151 12.157 14.2361 12.4534 14.0401C12.7497 13.8441 13.0973 13.7399 13.4526 13.7405H17.9679C18.1468 13.7404 18.3247 13.7662 18.4962 13.8173L17.6699 14.6436H13.4526C13.2207 14.6433 12.9976 14.7322 12.8295 14.8919ZM18.8707 20.0621C18.8707 20.3016 18.7756 20.5313 18.6062 20.7006C18.4369 20.87 18.2072 20.9651 17.9676 20.9651H13.4524C13.2129 20.9651 12.9832 20.87 12.8138 20.7006C12.6444 20.5313 12.5493 20.3016 12.5493 20.0621V19.3306L11.6462 18.4275V20.0621C11.6462 20.5411 11.8365 21.0005 12.1752 21.3392C12.514 21.6779 12.9733 21.8682 13.4524 21.8682H17.9676C18.4467 21.8682 18.9061 21.6779 19.2448 21.3392C19.5835 21.0005 19.7738 20.5411 19.7738 20.0621V16.3686L18.8707 17.2716V20.0621ZM11.3687 15.642C11.4237 15.6649 11.4737 15.6985 11.5157 15.7408L14.6809 18.906L19.9051 13.6818C19.947 13.6395 19.997 13.6059 20.052 13.583C20.107 13.5601 20.166 13.5483 20.2256 13.5483C20.2853 13.5483 20.3443 13.5601 20.3993 13.583C20.4543 13.6059 20.5043 13.6395 20.5462 13.6818C20.6303 13.7664 20.6775 13.8809 20.6775 14.0002C20.6775 14.1195 20.6303 14.2339 20.5462 14.3185L14.9969 19.8633C14.955 19.9056 14.905 19.9392 14.85 19.9621C14.795 19.985 14.736 19.9968 14.6764 19.9968C14.6167 19.9968 14.5577 19.985 14.5027 19.9621C14.4477 19.9392 14.3977 19.9056 14.3558 19.8633L10.8745 16.3775C10.7904 16.2929 10.7432 16.1784 10.7432 16.0591C10.7432 15.9399 10.7904 15.8254 10.8745 15.7408C10.9165 15.6985 10.9664 15.6649 11.0214 15.642C11.0764 15.6191 11.1355 15.6073 11.1951 15.6073C11.2547 15.6073 11.3137 15.6191 11.3687 15.642Z" fill="black"/>
</svg>
