<svg width="32" height="32" viewBox="0 0 32 32" fill="none" xmlns="http://www.w3.org/2000/svg">
<path fill-rule="evenodd" clip-rule="evenodd" d="M6.51445 8H24.8085C24.9449 8 25.0758 8.0542 25.1722 8.15068C25.2687 8.24716 25.3229 8.37801 25.3229 8.51445V23.1455C25.3229 23.282 25.2687 23.4128 25.1722 23.5093C25.0758 23.6058 24.9449 23.66 24.8085 23.66H6.51445C6.37801 23.66 6.24716 23.6058 6.15068 23.5093C6.0542 23.4128 6 23.282 6 23.1455V8.51445C6 8.37801 6.0542 8.24716 6.15068 8.15068C6.24716 8.0542 6.37801 8 6.51445 8ZM24.1936 22.5306C24.2579 22.4663 24.294 22.3791 24.294 22.2881V9.37188C24.294 9.28092 24.2579 9.19368 24.1936 9.12936C24.1292 9.06504 24.042 9.02891 23.951 9.02891H7.37188C7.28092 9.02891 7.19368 9.06504 7.12936 9.12936C7.06504 9.19368 7.02891 9.28092 7.02891 9.37188V22.2881C7.02891 22.3791 7.06504 22.4663 7.12936 22.5306C7.19368 22.595 7.28092 22.6311 7.37188 22.6311H23.951C24.042 22.6311 24.1292 22.595 24.1936 22.5306ZM23.1213 10.764C23.1862 10.783 23.2467 10.8146 23.2994 10.8569C23.3524 10.8987 23.3966 10.9505 23.4293 11.0095C23.462 11.0685 23.4826 11.1334 23.49 11.2005C23.4973 11.2676 23.4912 11.3354 23.4721 11.4001C23.4529 11.4648 23.421 11.525 23.3783 11.5772L16.0627 20.7242C16.0175 20.7807 15.9607 20.827 15.8963 20.8601C15.8319 20.8932 15.7612 20.9124 15.6889 20.9162H15.6615C15.5938 20.917 15.5267 20.904 15.4642 20.878C15.4018 20.8521 15.3452 20.8137 15.2979 20.7653L12.2455 17.7163C12.1812 17.6525 12.0943 17.6166 12.0037 17.6166C11.9131 17.6166 11.8262 17.6525 11.7619 17.7163L8.70946 20.7653C8.61194 20.8562 8.48295 20.9057 8.34967 20.9033C8.21639 20.901 8.08923 20.847 7.99497 20.7527C7.90071 20.6585 7.84672 20.5313 7.84437 20.398C7.84202 20.2648 7.89149 20.1358 7.98236 20.0382L11.6384 16.3822C11.686 16.3341 11.7426 16.2959 11.805 16.2698C11.8674 16.2437 11.9343 16.2303 12.002 16.2303C12.0696 16.2303 12.1366 16.2437 12.199 16.2698C12.2614 16.2959 12.318 16.3341 12.3655 16.3822L15.3494 19.3626C15.3836 19.3961 15.4245 19.4221 15.4694 19.4388C15.5143 19.4555 15.5622 19.4627 15.61 19.4598C15.6578 19.4568 15.7045 19.444 15.747 19.4219C15.7896 19.3998 15.827 19.3691 15.857 19.3317L22.5757 10.9358C22.618 10.8831 22.6703 10.8392 22.7296 10.8067C22.7889 10.7742 22.854 10.7537 22.9212 10.7464C22.9884 10.7391 23.0564 10.7451 23.1213 10.764Z" fill="black"/>
</svg>
