<svg width="32" height="32" viewBox="0 0 32 32" fill="none" xmlns="http://www.w3.org/2000/svg">
<path fill-rule="evenodd" clip-rule="evenodd" d="M14.255 11.7304C14.6161 12.9295 15.3435 13.9856 16.335 14.7505C15.0859 15.1113 13.9878 15.8681 13.206 16.9069C12.4242 17.9457 12.001 19.2104 12 20.5105V26.0105C12 26.541 12.2107 27.0497 12.5858 27.4247C12.9609 27.7998 13.4696 28.0105 14 28.0105H26C26.5304 28.0105 27.0391 27.7998 27.4142 27.4247C27.7893 27.0497 28 26.541 28 26.0105V20.5105C27.9991 19.2104 27.5758 17.9457 26.794 16.9069C26.0122 15.8681 24.9141 15.1113 23.665 14.7505C24.6565 13.9856 25.3839 12.9295 25.745 11.7304C26.1062 10.5313 26.0832 9.24927 25.6791 8.06393C25.275 6.8786 24.5101 5.84942 23.4917 5.12064C22.4733 4.39185 21.2523 4 20 4C18.7477 4 17.5268 4.39185 16.5083 5.12064C15.4899 5.84942 14.7251 6.8786 14.321 8.06393C13.9169 9.24927 13.8938 10.5313 14.255 11.7304ZM23.7416 7.51049C24.2361 8.25051 24.5 9.12054 24.5 10.0106C24.5 11.204 24.0259 12.3486 23.182 13.1925C22.3381 14.0364 21.1935 14.5105 20 14.5105C19.11 14.5105 18.24 14.2466 17.4999 13.7522C16.7599 13.2577 16.1831 12.5549 15.8426 11.7326C15.502 10.9104 15.4128 10.0056 15.5865 9.13264C15.7601 8.25973 16.1887 7.45791 16.818 6.82857C17.4474 6.19924 18.2492 5.77065 19.1221 5.59702C19.995 5.42339 20.8998 5.5125 21.7221 5.8531C22.5443 6.19369 23.2472 6.77047 23.7416 7.51049ZM13.6465 26.3641C13.5527 26.2703 13.5 26.1431 13.5 26.0105V20.5105C13.5 19.3171 13.9741 18.1725 14.818 17.3286C15.6619 16.4847 16.8065 16.0105 18 16.0105H22C23.1935 16.0105 24.3381 16.4847 25.182 17.3286C26.0259 18.1725 26.5 19.3171 26.5 20.5105V26.0105C26.5 26.1431 26.4473 26.2703 26.3536 26.3641C26.2598 26.4579 26.1326 26.5105 26 26.5105H14C13.8674 26.5105 13.7402 26.4579 13.6465 26.3641ZM6.1184 11.0424C6.37122 12.5108 7.16135 13.8326 8.33501 14.7505C7.08593 15.1113 5.98783 15.8681 5.20601 16.9069C4.4242 17.9457 4.00096 19.2104 4.00002 20.5105V26.0105C4.00002 26.541 4.21073 27.0497 4.58581 27.4247C4.96088 27.7998 5.46959 28.0105 6.00002 28.0105H11.13C10.814 27.5661 10.6115 27.0511 10.54 26.5105H6.00002C5.86741 26.5105 5.74023 26.4578 5.64646 26.3641C5.5527 26.2703 5.50002 26.1431 5.50002 26.0105V20.5105C5.50002 19.3171 5.97412 18.1725 6.81804 17.3286C7.66195 16.4846 8.80654 16.0105 10 16.0105H12C12.5111 15.3357 13.1313 14.751 13.835 14.2805C13.8049 14.2412 13.7781 14.1994 13.755 14.1555C13.141 14.415 12.477 14.5349 11.811 14.5064C11.145 14.478 10.4936 14.3019 9.90396 13.9909C9.31432 13.6799 8.80113 13.2418 8.40149 12.7083C8.00186 12.1748 7.72575 11.5591 7.59312 10.9058C7.4605 10.2525 7.47468 9.57792 7.63463 8.93078C7.79458 8.28364 8.09631 7.68012 8.51801 7.16384C8.93971 6.64756 9.47085 6.23142 10.073 5.9455C10.6752 5.65957 11.3334 5.51101 12 5.51054C12.598 5.51077 13.1898 5.63151 13.74 5.86554C14.0326 5.43485 14.3676 5.03452 14.74 4.67054C13.4105 3.9979 11.8782 3.84402 10.4415 4.23884C9.00478 4.63365 7.76635 5.54893 6.96725 6.80652C6.16816 8.06411 5.86558 9.57404 6.1184 11.0424Z" fill="#121212"/>
</svg>
