<svg width="32" height="32" viewBox="0 0 32 32" fill="none" xmlns="http://www.w3.org/2000/svg">
<path d="M23.2324 11.3169C22.9492 9.68004 22.1376 8.18096 20.9219 7.04888C19.7062 5.91681 18.1531 5.21403 16.5002 5.048C15.4342 4.9289 14.3551 5.03208 13.331 5.35103C12.3069 5.66997 11.36 6.19775 10.5501 6.90105C9.75334 7.585 9.11321 8.43246 8.67319 9.38585C8.23316 10.3392 8.00357 11.3762 8 12.4262C7.99926 13.43 8.20769 14.423 8.61202 15.3418L8.85003 15.8603C8.94778 16.077 9.04553 16.2853 9.13053 16.4936L9.38979 17.0928C9.83361 18.0659 10.1878 19.0773 10.4481 20.1147C10.6717 21.0803 10.7815 22.0688 10.7753 23.06C10.7774 23.0982 10.7774 23.1365 10.7753 23.1747V24.9045C10.7786 25.634 11.069 26.3328 11.5836 26.8498C12.0983 27.3668 12.7957 27.6604 13.5252 27.6671H17.7328C18.0952 27.6671 18.454 27.5956 18.7887 27.4567C19.1234 27.3177 19.4274 27.1141 19.6832 26.8575C19.9391 26.6008 20.1417 26.2962 20.2796 25.9611C20.4175 25.626 20.488 25.2669 20.4868 24.9045V23.1025C20.4863 22.1006 20.6033 21.1021 20.8354 20.1274C21.1015 19.0814 21.4614 18.0615 21.9106 17.0801L22.1699 16.4808L22.4631 15.8263L22.6841 15.3248C23.0912 14.4052 23.3012 13.4106 23.3004 12.4049C23.3031 12.0411 23.2804 11.6776 23.2324 11.3169ZM12.0716 22.5287C12.0716 22.3417 12.0716 22.1632 12.0419 21.9847H19.2203C19.2203 22.1717 19.1948 22.363 19.1863 22.5627C19.1778 22.7625 19.1863 22.8432 19.1863 22.9877H12.0801C12.0801 22.8305 12.0801 22.6775 12.0716 22.5287ZM13.9119 13.2167H13.0619C12.8938 13.2167 12.7294 13.1669 12.5896 13.0735C12.4499 12.9801 12.3409 12.8473 12.2766 12.692C12.2122 12.5367 12.1954 12.3658 12.2282 12.2009C12.261 12.036 12.342 11.8845 12.4608 11.7656C12.5797 11.6468 12.7312 11.5658 12.8961 11.533C13.0609 11.5002 13.2319 11.517 13.3872 11.5814C13.5425 11.6457 13.6753 11.7547 13.7687 11.8944C13.8621 12.0342 13.9119 12.1986 13.9119 12.3667V13.2167ZM16.5342 21.1347H14.7619V14.0667H16.5342V21.1347ZM12.0844 24.675V23.825H19.1693V24.675H12.0844ZM17.7413 26.3751H13.5252C13.2468 26.3763 12.9741 26.2966 12.7402 26.1457C12.5063 25.9948 12.3213 25.7792 12.2076 25.5251H19.0503C18.9435 25.7837 18.7618 26.0044 18.5285 26.1589C18.2952 26.3134 18.0211 26.3946 17.7413 26.3921V26.3751ZM21.7576 14.0497C21.6805 14.3105 21.5868 14.566 21.4771 14.8148L21.2561 15.3163L21.1796 15.4905L20.8566 16.2173C20.7333 16.4936 20.6186 16.7656 20.5081 17.0291C20.1565 17.8448 19.8625 18.6841 19.6283 19.5409C19.495 20.0599 19.3928 20.5865 19.3223 21.1177H17.3843V14.0667H18.2343C18.5705 14.0667 18.8992 13.967 19.1788 13.7802C19.4583 13.5934 19.6762 13.3279 19.8049 13.0173C19.9336 12.7066 19.9673 12.3648 19.9017 12.035C19.8361 11.7053 19.6742 11.4023 19.4364 11.1646C19.1986 10.9268 18.8957 10.7649 18.5659 10.6993C18.2362 10.6337 17.8943 10.6674 17.5837 10.7961C17.2731 10.9247 17.0075 11.1426 16.8207 11.4222C16.6339 11.7018 16.5342 12.0305 16.5342 12.3667V13.2167H14.7619V12.3667C14.7619 12.0305 14.6622 11.7018 14.4754 11.4222C14.2886 11.1426 14.0231 10.9247 13.7125 10.7961C13.4018 10.6674 13.06 10.6337 12.7302 10.6993C12.4005 10.7649 12.0975 10.9268 11.8598 11.1646C11.622 11.4023 11.4601 11.7053 11.3945 12.035C11.3289 12.3648 11.3626 12.7066 11.4913 13.0173C11.6199 13.3279 11.8378 13.5934 12.1174 13.7802C12.397 13.967 12.7257 14.0667 13.0619 14.0667H13.9119V21.1347H11.9484C11.883 20.5991 11.7837 20.0681 11.6509 19.5451C11.4285 18.6926 11.1444 17.8574 10.8008 17.0461L10.4523 16.2258C10.3461 15.9963 10.2441 15.754 10.1336 15.5075C10.1083 15.4592 10.0857 15.4095 10.0656 15.3588L9.82755 14.8275C9.71936 14.5805 9.62848 14.3263 9.55554 14.0667C9.4003 13.5294 9.32161 12.9728 9.32179 12.4134C9.32026 11.5462 9.50503 10.6887 9.86358 9.89894C10.2221 9.10924 10.7461 8.40575 11.4001 7.83607C12.5788 6.81318 14.0896 6.25422 15.6502 6.26353C15.8859 6.26368 16.1214 6.27645 16.3557 6.30178C17.724 6.43837 19.0098 7.01922 20.0168 7.95557C21.0237 8.89191 21.6964 10.1322 21.9319 11.4869C22.0621 12.3493 22.0026 13.2297 21.7576 14.0667V14.0497ZM17.3843 13.1997V12.3497C17.3843 12.1816 17.4341 12.0172 17.5275 11.8774C17.6209 11.7377 17.7537 11.6287 17.909 11.5644C18.0643 11.5 18.2352 11.4832 18.4001 11.516C18.565 11.5488 18.7165 11.6298 18.8353 11.7486C18.9542 11.8675 19.0352 12.019 19.068 12.1839C19.1008 12.3488 19.0839 12.5197 19.0196 12.675C18.9553 12.8303 18.8463 12.9631 18.7065 13.0565C18.5667 13.1499 18.4024 13.1997 18.2343 13.1997H17.3843Z" fill="black"/>
</svg>
