<svg width="32" height="32" viewBox="0 0 32 32" fill="none" xmlns="http://www.w3.org/2000/svg">
<path fill-rule="evenodd" clip-rule="evenodd" d="M4.76343 10.2927H5.71518C5.87755 10.8094 6.20055 11.2608 6.63717 11.5813C7.0738 11.9017 7.60128 12.0745 8.14289 12.0745C8.6845 12.0745 9.21198 11.9017 9.6486 11.5813C10.0852 11.2608 10.4082 10.8094 10.5706 10.2927H27.7071C27.9096 10.2927 28.1038 10.2123 28.2469 10.0691C28.3901 9.92591 28.4705 9.73173 28.4705 9.52925C28.4705 9.32678 28.3901 9.1326 28.2469 8.98943C28.1038 8.84626 27.9096 8.76582 27.7071 8.76582H10.5655C10.4006 8.25295 10.0772 7.80563 9.64182 7.48831C9.20646 7.17098 8.68163 7 8.14289 7C7.60415 7 7.07931 7.17098 6.64395 7.48831C6.20859 7.80563 5.88517 8.25295 5.72027 8.76582H4.76343C4.56096 8.76582 4.36678 8.84626 4.2236 8.98943C4.08043 9.1326 4 9.32678 4 9.52925C4 9.73173 4.08043 9.92591 4.2236 10.0691C4.36678 10.2123 4.56096 10.2927 4.76343 10.2927ZM8.14289 8.00239C8.41108 8.00222 8.67458 8.07269 8.90688 8.20671C9.13918 8.34073 9.33208 8.53357 9.46617 8.76582C9.60018 8.99794 9.67073 9.26123 9.67073 9.52925C9.67073 9.79727 9.60018 10.0606 9.46617 10.2927C9.29833 10.5843 9.03889 10.8122 8.72816 10.9412C8.41743 11.0701 8.07281 11.0929 7.74783 11.0058C7.42286 10.9188 7.13574 10.7268 6.93107 10.4598C6.7264 10.1928 6.61565 9.86568 6.61603 9.52925C6.6169 9.26148 6.68704 8.99848 6.81961 8.76582C6.9537 8.53357 7.1466 8.34073 7.3789 8.20671C7.6112 8.07269 7.8747 8.00222 8.14289 8.00239ZM27.7071 15.5553H18.6884C18.5273 15.0366 18.2046 14.5832 17.7673 14.2611C17.3301 13.939 16.8012 13.7653 16.2582 13.7653C15.7151 13.7653 15.1863 13.939 14.749 14.2611C14.3118 14.5832 13.989 15.0366 13.8279 15.5553H4.76343C4.56096 15.5553 4.36678 15.6357 4.2236 15.7789C4.08043 15.9221 4 16.1162 4 16.3187C4 16.5212 4.08043 16.7154 4.2236 16.8585C4.36678 17.0017 4.56096 17.0821 4.76343 17.0821H13.833C13.9967 17.5969 14.3199 18.0463 14.7559 18.3652C15.1919 18.684 15.718 18.8559 16.2582 18.8559C16.7983 18.8559 17.3245 18.684 17.7605 18.3652C18.1965 18.0463 18.5197 17.5969 18.6833 17.0821H27.7071C27.9096 17.0821 28.1038 17.0017 28.2469 16.8585C28.3901 16.7154 28.4705 16.5212 28.4705 16.3187C28.4705 16.1162 28.3901 15.9221 28.2469 15.7789C28.1038 15.6357 27.9096 15.5553 27.7071 15.5553ZM16.2607 17.8456C15.9925 17.8457 15.729 17.7753 15.4967 17.6413C15.2644 17.5072 15.0715 17.3144 14.9374 17.0821C14.8034 16.85 14.7329 16.5867 14.7329 16.3187C14.7329 16.0507 14.8034 15.7874 14.9374 15.5553C15.1053 15.2637 15.3647 15.0357 15.6754 14.9068C15.9862 14.7778 16.3308 14.7551 16.6558 14.8421C16.9807 14.9292 17.2679 15.1211 17.4725 15.3881C17.6772 15.6551 17.788 15.9823 17.7876 16.3187C17.7867 16.5865 17.7166 16.8495 17.584 17.0821C17.4499 17.3144 17.257 17.5072 17.0247 17.6413C16.7924 17.7753 16.5289 17.8457 16.2607 17.8456ZM26.8368 22.3396H27.7071C27.9096 22.3396 28.1038 22.4201 28.2469 22.5632C28.3901 22.7064 28.4705 22.9006 28.4705 23.1031C28.4705 23.3055 28.3901 23.4997 28.2469 23.6429C28.1038 23.7861 27.9096 23.8665 27.7071 23.8665H26.8368C26.6757 24.3851 26.3529 24.8386 25.9157 25.1607C25.4784 25.4827 24.9496 25.6565 24.4065 25.6565C23.8635 25.6565 23.3346 25.4827 22.8974 25.1607C22.4601 24.8386 22.1373 24.3851 21.9763 23.8665H4.76343C4.56096 23.8665 4.36678 23.7861 4.2236 23.6429C4.08043 23.4997 4 23.3055 4 23.1031C4 22.9006 4.08043 22.7064 4.2236 22.5632C4.36678 22.4201 4.56096 22.3396 4.76343 22.3396H21.9763C22.1373 21.821 22.4601 21.3675 22.8974 21.0455C23.3346 20.7234 23.8635 20.5497 24.4065 20.5497C24.9496 20.5497 25.4784 20.7234 25.9157 21.0455C26.3529 21.3675 26.6757 21.821 26.8368 22.3396ZM23.4748 24.3139C23.7413 24.5186 24.0679 24.6297 24.404 24.6299C24.6722 24.6301 24.9357 24.5596 25.168 24.4256C25.4003 24.2916 25.5932 24.0988 25.7273 23.8665C25.8953 23.5755 25.9626 23.2371 25.9188 22.9039C25.8749 22.5707 25.7224 22.2613 25.4848 22.0236C25.2472 21.7859 24.9378 21.6333 24.6046 21.5893C24.2714 21.5454 23.9331 21.6126 23.642 21.7805C23.3509 21.9485 23.1233 22.2078 22.9946 22.5182C22.8658 22.8286 22.8431 23.1729 22.9299 23.4975C23.0168 23.8222 23.2083 24.1092 23.4748 24.3139Z" fill="#121212"/>
</svg>
