<svg width="32" height="32" viewBox="0 0 32 32" fill="none" xmlns="http://www.w3.org/2000/svg">
<path fill-rule="evenodd" clip-rule="evenodd" d="M7.52372 8H24.9122C26.3044 8 27.4359 9.13147 27.4359 10.5237V21.3463C27.4359 22.7385 26.3044 23.87 24.9122 23.87H7.52372C6.13147 23.87 5 22.7385 5 21.3463V10.5237C5 9.13147 6.13147 8 7.52372 8ZM24.9122 22.6081C25.6062 22.6081 26.174 22.0403 26.174 21.3463V10.5237C26.174 9.8297 25.6062 9.26186 24.9122 9.26186H7.52372C6.8297 9.26186 6.26186 9.8297 6.26186 10.5237V21.3463C6.26186 22.0403 6.8297 22.6081 7.52372 22.6081H24.9122ZM12.1505 12.0043C12.5754 11.3019 13.3409 10.8308 14.22 10.8308L14.2116 10.8266C15.5449 10.8266 16.6301 11.9118 16.6301 13.2451C16.6301 13.9223 16.3441 14.5701 15.8478 15.0285L12.6385 18.2547C12.5081 18.3893 12.3314 18.4608 12.1463 18.4608C11.9613 18.4608 11.7846 18.3851 11.6542 18.2547L8.44067 15.0243C7.94854 14.5701 7.66252 13.9223 7.66252 13.2493C7.66252 11.916 8.74772 10.8308 10.0811 10.8308C10.9602 10.8308 11.7257 11.3019 12.1505 12.0043ZM15.2757 14.4186L15.2842 14.4102H15.2926C15.6164 14.1116 15.8015 13.6868 15.8015 13.2493C15.8015 12.3786 15.0949 11.672 14.2242 11.672C13.669 11.672 13.1642 11.958 12.874 12.4375L12.5123 13.0348C12.3482 13.304 11.9571 13.304 11.793 13.0348L11.4313 12.4375C11.0653 11.8318 10.3545 11.5332 9.63102 11.7351C9.35341 11.815 9.09683 11.9791 8.90755 12.1978C8.29345 12.9086 8.42384 13.8634 9.01271 14.406L9.03374 14.4229L9.05057 14.4397L9.06739 14.4565L12.1505 17.5565L15.1664 14.5238L15.2673 14.4271L15.2757 14.4186ZM24.7986 17.6154H16.6049C16.3736 17.6154 16.1843 17.8046 16.1843 18.036C16.1843 18.2673 16.3736 18.4566 16.6049 18.4566H24.7986C25.0299 18.4566 25.2192 18.2673 25.2192 18.036C25.2192 17.8046 25.0299 17.6154 24.7986 17.6154ZM16.6049 19.975H21.8248C22.0561 19.975 22.2454 20.1643 22.2454 20.3957C22.2454 20.627 22.0561 20.8163 21.8248 20.8163H16.6049C16.3736 20.8163 16.1843 20.627 16.1843 20.3957C16.1843 20.1643 16.3736 19.975 16.6049 19.975Z" fill="black"/>
</svg>
