<svg width="32" height="32" viewBox="0 0 32 32" fill="none" xmlns="http://www.w3.org/2000/svg">
<path fill-rule="evenodd" clip-rule="evenodd" d="M8.21931 4.28118H22.7807C23.3751 4.27057 23.9497 4.4946 24.3801 4.90473C24.8105 5.31486 25.0619 5.87806 25.0799 6.47227V26.6146C25.081 26.8054 25.0372 26.9939 24.9518 27.1646C24.8664 27.3353 24.742 27.4835 24.5886 27.5971C24.4287 27.7139 24.2441 27.7923 24.049 27.8264C23.8539 27.8605 23.6536 27.8493 23.4636 27.7936L23.3064 27.7298L19.9215 25.799L15.8783 27.9459C15.638 28.018 15.3817 28.018 15.1414 27.9459L15.0087 27.8919L11.0785 25.799L7.54135 27.8133C7.35051 27.869 7.14944 27.8802 6.95358 27.8462C6.75772 27.8121 6.57225 27.7336 6.41142 27.6168C6.25888 27.5024 6.13508 27.354 6.04981 27.1835C5.96454 27.0129 5.92014 26.8249 5.92014 26.6342V6.49192C5.93305 5.89426 6.18223 5.32606 6.61315 4.91171C7.04407 4.49737 7.6216 4.27065 8.21931 4.28118ZM20.4422 24.4038L23.6061 26.2068V6.49192C23.5934 6.28511 23.4996 6.09166 23.345 5.95365C23.1904 5.81565 22.9876 5.74426 22.7807 5.75501H8.21931C8.01239 5.74426 7.80959 5.81565 7.65502 5.95365C7.50046 6.09166 7.40664 6.28511 7.39397 6.49192V26.2068L10.6953 24.335C10.9357 24.2629 11.1919 24.2629 11.4323 24.335L11.5698 24.394L15.5 26.4868L19.553 24.335C19.7939 24.2662 20.0491 24.2662 20.29 24.335L20.4422 24.4038ZM14.7927 10.2386C15.0808 10.1293 15.389 10.083 15.6965 10.1028C16.0073 10.0801 16.3193 10.125 16.611 10.2344C16.9027 10.3438 17.1673 10.5151 17.3865 10.7366C17.7917 11.2508 17.9945 11.8957 17.9564 12.5494V13.0406H16.4826V12.4757C16.514 12.2105 16.4514 11.9428 16.3057 11.7191C16.2352 11.6406 16.1475 11.5794 16.0496 11.5402C15.9516 11.501 15.8459 11.4849 15.7407 11.4931C15.6348 11.4849 15.5284 11.501 15.4296 11.5402C15.3309 11.5793 15.2424 11.6405 15.1709 11.7191C15.0199 11.9409 14.9521 12.2088 14.9793 12.4757V13.8267H17.1409V14.598H14.9793V15.3693H17.1409V16.1406H14.9793V17.8699C14.9566 18.1271 15.0244 18.3843 15.1709 18.597C15.2424 18.6755 15.3309 18.7367 15.4296 18.7759C15.5284 18.8151 15.6348 18.8312 15.7407 18.8229C15.8459 18.8311 15.9516 18.815 16.0496 18.7758C16.1475 18.7366 16.2352 18.6754 16.3057 18.597C16.4504 18.3783 16.513 18.1155 16.4826 17.8551V16.9266H17.9564V17.7421C18.0006 18.404 17.7975 19.0588 17.3865 19.5795C17.17 19.7992 16.9088 19.9699 16.6207 20.0801C16.3325 20.1903 16.0241 20.2374 15.7162 20.2182C15.4051 20.2402 15.0928 20.1946 14.8011 20.0843C14.5093 19.9741 14.2449 19.8018 14.0262 19.5795C13.6081 19.0616 13.398 18.4066 13.4367 17.7421V16.1406H13.0436V15.3644H13.4367V14.5931H13.0436V13.8218H13.4563V12.569C13.4133 11.9088 13.6163 11.256 14.0262 10.7366C14.2432 10.5177 14.5045 10.3479 14.7927 10.2386Z" fill="#121212"/>
</svg>
