<svg width="32" height="32" viewBox="0 0 32 32" fill="none" xmlns="http://www.w3.org/2000/svg">
<path fill-rule="evenodd" clip-rule="evenodd" d="M9.33316 6.02236C11.3065 4.70379 13.6266 4 16 4C19.1826 4 22.2348 5.26428 24.4853 7.51472C26.7357 9.76515 28 12.8174 28 16C28 18.3734 27.2962 20.6934 25.9776 22.6668C24.659 24.6402 22.7849 26.1783 20.5922 27.0865C18.3995 27.9948 15.9867 28.2324 13.6589 27.7694C11.3311 27.3064 9.19295 26.1635 7.51472 24.4853C5.83649 22.807 4.6936 20.6688 4.23058 18.3411C3.76756 16.0133 4.0052 13.6005 4.91345 11.4078C5.8217 9.21508 7.35977 7.34094 9.33316 6.02236ZM10.1665 24.7304C11.8932 25.8842 13.9233 26.5 16 26.5C18.7848 26.5 21.4555 25.3937 23.4246 23.4246C25.3937 21.4555 26.5 18.7848 26.5 16C26.5 13.9233 25.8842 11.8932 24.7304 10.1665C23.5767 8.43979 21.9368 7.09398 20.0182 6.29926C18.0995 5.50454 15.9883 5.29661 13.9515 5.70175C11.9148 6.1069 10.0438 7.10692 8.57538 8.57538C7.10693 10.0438 6.1069 11.9147 5.70176 13.9515C5.29661 15.9883 5.50455 18.0995 6.29927 20.0182C7.09399 21.9368 8.4398 23.5767 10.1665 24.7304ZM16.75 15.235H22.665V15.25C22.8639 15.25 23.0547 15.329 23.1953 15.4697C23.336 15.6103 23.415 15.8011 23.415 16C23.415 16.1989 23.336 16.3897 23.1953 16.5303C23.0547 16.671 22.8639 16.75 22.665 16.75H16C15.8011 16.75 15.6103 16.671 15.4697 16.5303C15.329 16.3897 15.25 16.1989 15.25 16V7.83501C15.25 7.63609 15.329 7.44533 15.4697 7.30468C15.6103 7.16402 15.8011 7.08501 16 7.08501C16.1989 7.08501 16.3897 7.16402 16.5303 7.30468C16.671 7.44533 16.75 7.63609 16.75 7.83501V15.235Z" fill="#121212"/>
</svg>
