<svg width="32" height="32" viewBox="0 0 32 32" fill="none" xmlns="http://www.w3.org/2000/svg">
<path fill-rule="evenodd" clip-rule="evenodd" d="M20.6036 10.9652H20.9738C22.08 10.9652 23.1408 11.4047 23.923 12.1868C24.7052 12.969 25.1446 14.0299 25.1446 15.136V23.4776C25.1446 24.5838 24.7052 25.6446 23.923 26.4268C23.1408 27.209 22.08 27.6484 20.9738 27.6484H9.50411C8.39795 27.6484 7.33709 27.209 6.55491 26.4268C5.77274 25.6446 5.33331 24.5838 5.33331 23.4776V15.136C5.33331 14.0299 5.77274 12.969 6.55491 12.1868C7.33709 11.4047 8.39795 10.9652 9.50411 10.9652H9.87427V9.36469C9.87427 8.66019 10.013 7.96259 10.2826 7.31171C10.5522 6.66084 10.9474 6.06944 11.4456 5.57128C11.9437 5.07312 12.5351 4.67796 13.186 4.40836C13.8369 4.13876 14.5345 4 15.239 4C15.9435 4 16.6411 4.13876 17.2919 4.40836C17.9428 4.67796 18.5342 5.07312 19.0324 5.57128C19.5305 6.06944 19.9257 6.66084 20.1953 7.31171C20.4649 7.96259 20.6036 8.66019 20.6036 9.36469V10.9652ZM11.7276 7.91025C11.5366 8.37136 11.4383 8.86558 11.4383 9.36469V10.9652H19.0396V9.36469C19.0396 8.86558 18.9413 8.37136 18.7503 7.91025C18.5593 7.44913 18.2793 7.03015 17.9264 6.67723C17.5735 6.32431 17.1545 6.04436 16.6934 5.85336C16.2323 5.66236 15.7381 5.56405 15.239 5.56405C14.7399 5.56405 14.2456 5.66236 13.7845 5.85336C13.3234 6.04436 12.9044 6.32431 12.5515 6.67723C12.1986 7.03015 11.9186 7.44913 11.7276 7.91025ZM22.8171 25.3209C23.3059 24.832 23.5806 24.169 23.5806 23.4776V15.136C23.5806 14.4447 23.3059 13.7816 22.8171 13.2928C22.3282 12.8039 21.6652 12.5293 20.9738 12.5293H9.50411C8.81276 12.5293 8.14972 12.8039 7.66086 13.2928C7.172 13.7816 6.89736 14.4447 6.89736 15.136V23.4776C6.89736 24.169 7.172 24.832 7.66086 25.3209C8.14972 25.8097 8.81276 26.0844 9.50411 26.0844H20.9738C21.6652 26.0844 22.3282 25.8097 22.8171 25.3209ZM15.1032 16.945H15.3118V16.9346C15.6503 16.9299 15.9819 17.0309 16.2603 17.2236C16.5386 17.4163 16.7499 17.6911 16.8647 18.0096C16.9795 18.3281 16.992 18.6745 16.9006 19.0005C16.8091 19.3265 16.6182 19.6158 16.3545 19.8281L16.7872 21.8874C16.7964 21.941 16.7937 21.996 16.7792 22.0484C16.7648 22.1008 16.739 22.1494 16.7037 22.1907C16.6683 22.232 16.6243 22.265 16.5748 22.2874C16.5253 22.3097 16.4714 22.3209 16.417 22.3202H14.2013C14.1471 22.3211 14.0934 22.31 14.044 22.2875C13.9947 22.2651 13.9509 22.232 13.916 22.1906C13.881 22.1491 13.8557 22.1004 13.842 22.048C13.8282 21.9955 13.8263 21.9407 13.8364 21.8874L14.2691 19.8281C14.0168 19.6282 13.8297 19.3578 13.7316 19.0512C13.6336 18.7446 13.629 18.4158 13.7184 18.1066C13.8079 17.7974 13.9874 17.5218 14.234 17.315C14.4806 17.1081 14.7832 16.9793 15.1032 16.945Z" fill="#121212"/>
</svg>
