<svg width="32" height="32" viewBox="0 0 32 32" fill="none" xmlns="http://www.w3.org/2000/svg">
<path fill-rule="evenodd" clip-rule="evenodd" d="M9.88873 6.85383C11.6977 5.64514 13.8244 5 16 5C18.9174 5 21.7153 6.15893 23.7782 8.22183C25.8411 10.2847 27 13.0826 27 16C27 18.1756 26.3549 20.3023 25.1462 22.1113C23.9375 23.9202 22.2195 25.3301 20.2095 26.1627C18.1995 26.9952 15.9878 27.2131 13.854 26.7886C11.7202 26.3642 9.76021 25.3166 8.22183 23.7782C6.68345 22.2398 5.6358 20.2798 5.21137 18.146C4.78693 16.0122 5.00477 13.8005 5.83733 11.7905C6.66989 9.7805 8.07979 8.06253 9.88873 6.85383ZM10.6526 24.0029C12.2355 25.0605 14.0964 25.625 16 25.625C18.5527 25.625 21.0009 24.6109 22.8059 22.8059C24.611 21.0009 25.625 18.5527 25.625 16C25.625 14.0964 25.0605 12.2355 24.0029 10.6526C22.9453 9.06981 21.4421 7.83615 19.6833 7.10766C17.9246 6.37917 15.9893 6.18856 14.1223 6.55994C12.2552 6.93132 10.5402 7.84802 9.1941 9.1941C7.84802 10.5402 6.93133 12.2552 6.55995 14.1223C6.18856 15.9893 6.37917 17.9246 7.10766 19.6833C7.83616 21.4421 9.06982 22.9453 10.6526 24.0029ZM11.1953 20.8101C12.469 22.0872 14.1964 22.8082 16 22.8154C16.8962 22.8166 17.7839 22.6413 18.6124 22.2994C19.4408 21.9576 20.1938 21.4559 20.8284 20.823C21.463 20.1902 21.9667 19.4385 22.3108 18.611C22.6548 17.7834 22.8326 16.8962 22.8338 16C22.8338 15.8177 22.7613 15.6428 22.6324 15.5139C22.5035 15.3849 22.3286 15.3125 22.1463 15.3125C21.9639 15.3125 21.7891 15.3849 21.6601 15.5139C21.5312 15.6428 21.4588 15.8177 21.4588 16C21.4588 16.7144 21.318 17.4219 21.0446 18.082C20.7712 18.742 20.3705 19.3418 19.8653 19.847C19.3601 20.3521 18.7604 20.7529 18.1003 21.0263C17.4402 21.2997 16.7328 21.4404 16.0183 21.4404C15.3039 21.4404 14.5964 21.2997 13.9364 21.0263C13.2763 20.7529 12.6766 20.3521 12.1714 19.847C11.6662 19.3418 11.2655 18.742 10.9921 18.082C10.7186 17.4219 10.5779 16.7144 10.5779 16C10.5779 15.8177 10.5055 15.6428 10.3766 15.5139C10.2476 15.3849 10.0728 15.3125 9.89042 15.3125C9.70809 15.3125 9.53322 15.3849 9.40429 15.5139C9.27536 15.6428 9.20292 15.8177 9.20292 16C9.20533 17.8037 9.92164 19.533 11.1953 20.8101ZM12.4113 13.3279C12.9175 13.3279 13.3279 12.9175 13.3279 12.4113C13.3279 11.905 12.9175 11.4946 12.4113 11.4946C11.905 11.4946 11.4946 11.905 11.4946 12.4113C11.4946 12.9175 11.905 13.3279 12.4113 13.3279ZM20.5421 12.4113C20.5421 12.9175 20.1317 13.3279 19.6254 13.3279C19.1192 13.3279 18.7088 12.9175 18.7088 12.4113C18.7088 11.905 19.1192 11.4946 19.6254 11.4946C20.1317 11.4946 20.5421 11.905 20.5421 12.4113Z" fill="black"/>
</svg>
